<?xml version="1.0" standalone="no"?>
<!DOCTYPE svg PUBLIC "-//W3C//DTD SVG 20010904//EN"
 "http://www.w3.org/TR/2001/REC-SVG-20010904/DTD/svg10.dtd">
<svg version="1.0" xmlns="http://www.w3.org/2000/svg"
 width="1280.000000pt" height="640.000000pt" viewBox="0 0 1280.000000 640.000000"
 preserveAspectRatio="xMidYMid meet">
<metadata>
Created by potrace 1.15, written by Peter Selinger 2001-2017
</metadata>
<g transform="translate(0.000000,640.000000) scale(0.100000,-0.100000)"
fill="#000000" stroke="none">
<path d="M6507 5439 c-81 -41 -121 -67 -212 -139 -44 -35 -85 -67 -92 -72 -7
-6 -17 1 -28 20 -52 87 -183 81 -334 -15 -58 -37 -56 -37 -87 20 -8 15 -16 27
-18 27 -2 0 -41 -21 -87 -47 -46 -26 -107 -70 -136 -99 l-51 -53 -7 27 c-10
42 -65 122 -84 122 -27 0 -138 -78 -175 -124 -19 -23 -40 -55 -46 -71 l-11
-29 -23 40 c-12 22 -42 69 -66 104 l-43 64 -12 -35 c-7 -19 -24 -58 -39 -86
-14 -29 -26 -60 -26 -69 0 -10 -24 9 -62 48 -65 65 -170 158 -181 158 -3 0
-10 -15 -16 -32 -5 -18 -18 -57 -29 -87 -19 -52 -20 -53 -35 -31 -9 13 -55 67
-104 120 l-88 97 -30 -82 -30 -82 -85 38 c-47 21 -88 38 -91 38 -3 1 -18 -39
-34 -89 -16 -49 -34 -90 -39 -90 -6 0 -42 9 -81 20 -38 10 -70 18 -71 17 0 -2
-58 -179 -59 -184 -1 -1 -29 7 -64 17 -89 28 -89 29 -90 -37 -1 -32 -5 -84 -9
-116 l-7 -58 -45 30 -45 30 -3 -79 c-2 -44 -5 -80 -8 -80 -2 0 -27 11 -54 25
-69 35 -80 33 -81 -12 0 -21 -6 -66 -12 -101 l-12 -63 -72 60 c-39 33 -73 66
-76 73 -9 23 -27 -13 -27 -54 0 -41 -5 -45 -29 -24 -18 17 -178 106 -189 106
-7 0 -42 -169 -42 -203 0 -17 -4 -17 -44 7 -25 14 -48 26 -53 26 -5 0 -22 -18
-39 -40 -17 -22 -52 -62 -78 -90 -54 -57 -56 -57 -108 14 -15 21 -28 35 -28
30 0 -5 -15 -36 -34 -68 l-34 -59 -16 30 c-8 17 -40 52 -70 77 l-54 47 -27
-25 c-14 -13 -51 -41 -81 -62 l-55 -38 -53 53 -53 52 -29 -33 c-16 -18 -38
-46 -50 -62 l-21 -29 -22 22 c-12 12 -27 21 -34 18 -6 -2 -23 -37 -37 -78 -14
-41 -26 -76 -27 -78 -1 -2 -10 6 -20 17 -31 37 -105 92 -114 86 -5 -3 -9 -20
-10 -37 -1 -18 -4 -42 -7 -55 l-7 -23 -41 31 -42 30 -11 -77 c-6 -42 -13 -79
-16 -81 -2 -3 -16 3 -30 12 -15 10 -61 32 -104 50 l-77 34 -55 -23 c-78 -32
-154 -71 -166 -87 -6 -7 -17 -30 -24 -52 -8 -21 -20 -41 -28 -44 -7 -3 -33 5
-58 17 -43 21 -46 21 -59 4 -24 -31 -36 -96 -31 -156 4 -45 21 -90 76 -204 39
-80 70 -147 69 -148 -2 -1 -28 1 -58 6 -90 13 -180 11 -176 -3 3 -7 7 -55 10
-105 l6 -93 -75 0 -74 0 30 -65 c16 -36 43 -95 59 -132 35 -75 33 -78 -42 -88
-26 -4 -48 -11 -48 -16 0 -16 92 -109 140 -142 24 -17 69 -41 99 -53 l54 -22
-41 -13 c-23 -7 -42 -17 -42 -22 0 -5 30 -38 66 -74 37 -35 65 -65 63 -67 -2
-1 -18 -8 -36 -15 -17 -7 -40 -22 -49 -32 -17 -19 -17 -21 11 -44 67 -56 217
-115 292 -115 65 0 67 -12 6 -39 -106 -47 -182 -86 -183 -92 0 -14 84 -30 185
-36 98 -5 174 1 302 23 l32 6 -33 -35 c-28 -30 -74 -127 -61 -127 10 0 161 63
171 71 7 5 20 -12 40 -51 28 -57 31 -59 67 -60 47 0 74 13 108 52 l26 31 21
-35 c29 -46 117 -128 138 -128 17 0 17 0 -2 -73 -5 -21 -1 -24 73 -37 43 -8
115 -14 160 -14 83 2 83 1 77 -22 -4 -14 -3 -49 1 -79 l6 -55 117 0 c65 0 132
4 150 10 33 9 34 9 58 -43 13 -29 24 -58 24 -66 0 -7 6 -11 13 -8 6 2 50 16
97 30 101 32 145 57 168 97 9 16 20 30 24 30 4 0 23 -27 44 -60 27 -44 40 -57
49 -50 7 6 52 23 100 40 59 19 99 39 119 59 l30 30 33 -70 c42 -85 89 -123
175 -141 53 -11 59 -14 53 -33 -4 -11 -9 -47 -12 -80 -4 -52 -2 -64 18 -89 33
-42 77 -56 171 -56 91 0 150 17 242 68 l52 30 55 -19 c65 -22 191 -25 265 -5
69 18 169 64 190 87 9 11 20 19 24 19 3 0 12 -23 19 -50 15 -58 61 -110 96
-110 28 0 68 16 108 43 22 15 27 15 27 4 0 -8 11 -40 25 -72 l26 -58 30 29
c33 32 112 144 154 220 l29 51 28 -58 c24 -50 32 -58 51 -55 12 3 46 10 76 16
94 18 203 69 322 149 l117 79 11 -74 c7 -40 16 -76 21 -79 9 -6 129 39 170 64
14 8 34 23 46 33 19 17 24 17 60 4 94 -33 150 -38 216 -21 101 26 158 86 158
168 l0 34 49 -5 c124 -12 244 79 271 203 l6 30 18 -35 c10 -19 20 -36 21 -38
2 -2 51 20 109 48 82 40 112 51 133 45 21 -5 24 -8 12 -16 -10 -7 -7 -8 11 -4
14 3 45 -1 69 -10 24 -8 45 -15 47 -15 2 0 26 21 55 46 28 25 56 43 63 40 6
-3 61 -26 121 -51 111 -46 111 -46 128 -93 29 -82 117 -151 192 -152 37 0 121
39 156 73 l27 26 17 -77 c10 -42 22 -81 26 -86 12 -14 175 31 265 73 111 53
196 111 282 197 l72 72 0 -37 c0 -132 121 -330 238 -390 59 -30 144 -29 218 4
32 14 58 24 58 23 19 -53 82 -108 123 -108 70 0 196 105 242 201 l27 56 27
-96 c15 -53 28 -104 27 -114 0 -21 -8 -22 140 25 90 28 174 72 200 104 19 22
27 18 65 -34 l34 -48 48 6 c26 4 60 12 75 18 46 19 105 80 127 132 12 28 24
50 27 50 3 0 34 -9 69 -21 87 -28 113 -21 174 48 l50 56 23 -28 24 -27 66 36
c70 39 110 73 138 119 l18 29 23 -32 c51 -69 140 -97 212 -66 30 12 79 60 103
101 9 17 13 17 55 2 56 -20 145 -40 159 -35 11 3 79 182 87 231 4 22 9 26 22
21 17 -8 216 -78 240 -85 9 -2 16 4 18 16 2 11 8 43 15 72 l11 52 67 -25 c37
-13 75 -24 84 -24 9 0 39 21 66 46 l50 47 58 -6 c32 -4 68 -3 81 0 22 6 23 10
18 63 -8 91 -65 185 -201 330 -96 103 -95 96 -23 92 34 -2 79 0 99 5 l37 8
-54 65 -54 65 127 3 c70 1 133 4 140 7 17 6 -93 98 -162 137 l-51 28 113 0
c69 0 112 4 112 10 0 22 -116 83 -223 117 -62 19 -116 39 -120 43 -5 4 8 11
27 14 20 4 50 13 68 21 l33 13 -65 30 c-126 56 -202 83 -251 89 -27 3 -49 10
-49 14 0 5 20 14 45 21 25 7 45 15 45 19 0 14 -67 63 -120 87 -69 32 -157 51
-237 52 -35 0 -63 4 -63 10 0 6 4 10 9 10 5 0 23 21 40 47 59 88 33 171 -64
209 -50 19 -115 15 -165 -11 -24 -12 -28 -13 -24 -1 7 17 -25 26 -99 26 -83 0
-195 -25 -290 -66 -45 -20 -88 -38 -96 -41 -11 -5 -11 -2 -2 15 6 11 11 34 11
51 l0 30 -52 -5 c-29 -2 -72 -7 -96 -9 -51 -6 -185 12 -227 29 -26 11 -32 21
-43 73 -24 119 -119 278 -231 387 l-51 50 -69 -31 -70 -31 -23 25 c-55 60
-262 177 -277 156 -3 -5 -27 -39 -54 -75 -26 -36 -52 -80 -58 -97 l-11 -31
-41 32 c-106 81 -118 90 -121 87 -2 -2 -22 -43 -46 -90 l-43 -85 -56 37 c-119
78 -249 87 -374 25 l-47 -23 -15 32 c-22 45 -143 175 -164 175 -9 0 -34 -9
-55 -20 l-39 -19 -56 23 c-32 13 -73 26 -92 30 -26 5 -37 13 -46 35 -7 19 -26
37 -52 51 -37 19 -40 22 -26 36 16 16 19 33 9 58 -7 19 -97 22 -152 6 -30 -8
-33 -7 -27 8 28 64 34 97 35 170 l0 84 -97 -7 c-87 -7 -199 -29 -244 -49 -10
-5 -40 11 -88 46 -73 53 -73 53 -76 103 -1 35 -15 78 -43 138 l-42 87 -49 -20
c-45 -17 -117 -49 -132 -57 -3 -2 -11 14 -18 36 -16 56 -54 97 -106 116 -79
31 -179 -1 -287 -88 l-56 -47 -24 28 c-13 15 -30 39 -39 52 l-17 25 -23 -20
c-13 -11 -57 -42 -96 -69 -40 -26 -73 -52 -73 -57 0 -5 -4 -9 -9 -9 -5 0 -11
21 -14 48 -2 26 -22 84 -43 129 l-39 82 -58 -30z"/>
<path d="M7439 1973 c-13 -16 -12 -17 3 -5 9 8 23 10 29 6 8 -4 9 -3 5 4 -10
17 -21 15 -37 -5z"/>
<path d="M7140 1930 c-8 -5 -10 -10 -5 -10 6 0 17 5 25 10 8 5 11 10 5 10 -5
0 -17 -5 -25 -10z"/>
</g>
</svg>
