<?xml version="1.0" standalone="no"?>
<!DOCTYPE svg PUBLIC "-//W3C//DTD SVG 20010904//EN"
 "http://www.w3.org/TR/2001/REC-SVG-20010904/DTD/svg10.dtd">
<svg version="1.0" xmlns="http://www.w3.org/2000/svg"
 width="1280.000000pt" height="640.000000pt" viewBox="0 0 1280.000000 640.000000"
 preserveAspectRatio="xMidYMid meet">
<metadata>
Created by potrace 1.15, written by Peter Selinger 2001-2017
</metadata>
<g transform="translate(0.000000,640.000000) scale(0.100000,-0.100000)"
fill="#000000" stroke="none">
<path d="M5444 5834 c-6 -34 -1 -94 12 -140 5 -19 -2 -22 -122 -43 -71 -12
-134 -26 -142 -30 -22 -12 69 -85 146 -117 58 -24 81 -28 172 -28 l105 -1 -70
-50 c-143 -102 -154 -108 -171 -90 -21 20 -83 19 -170 -4 l-72 -18 -4 91 c-5
112 -26 154 -131 263 -81 84 -119 105 -145 79 -19 -19 -20 -71 -7 -313 l7
-132 -59 20 c-32 11 -115 29 -185 39 -70 11 -143 22 -163 26 -30 5 -35 3 -35
-12 0 -26 43 -116 63 -133 10 -7 17 -17 17 -21 0 -4 -37 -9 -82 -12 -128 -7
-182 -43 -152 -104 33 -68 133 -94 371 -95 110 -1 176 2 190 10 41 21 47 11
13 -24 -25 -25 -45 -36 -79 -41 -25 -4 -75 -18 -111 -31 -44 -16 -95 -26 -157
-30 -100 -6 -97 -4 -93 -68 7 -128 268 -249 433 -201 51 15 62 24 112 86 31
39 74 82 95 96 l39 26 57 -48 c101 -87 174 -174 214 -259 37 -79 38 -81 33
-177 l-5 -98 -82 83 c-44 46 -96 94 -113 106 l-33 22 0 -40 c0 -23 9 -63 19
-91 11 -27 18 -50 18 -50 -1 0 -33 11 -72 25 -38 13 -81 25 -95 25 -20 0 -22
2 -10 10 25 16 -118 12 -185 -5 -134 -35 -258 -131 -348 -268 -30 -45 -57 -91
-61 -102 -13 -40 -42 -63 -95 -74 -28 -6 -54 -11 -56 -11 -2 0 12 30 31 66 40
77 46 134 14 134 -11 0 -37 -7 -57 -15 -47 -20 -53 -19 -53 8 0 30 -36 139
-62 190 -11 22 -18 40 -16 41 2 2 86 0 188 -4 202 -6 274 2 331 37 38 24 42
22 -71 52 -41 12 -113 32 -160 46 -112 34 -260 44 -323 22 -54 -18 -67 -10
-67 43 0 25 -10 50 -29 77 l-29 40 138 11 c160 12 203 27 198 70 -2 17 -14 32
-33 44 -72 41 -324 50 -396 12 -24 -12 -31 -13 -23 -3 22 27 34 110 34 226 0
173 -23 208 -77 119 -36 -60 -50 -111 -61 -236 l-7 -85 -80 -5 c-63 -4 -108
-16 -210 -54 -157 -59 -166 -66 -130 -94 88 -69 376 -116 433 -70 14 11 15 10
8 -7 -47 -120 -76 -252 -76 -351 0 -73 5 -76 72 -44 30 14 62 20 113 20 80 0
156 19 187 46 16 16 21 16 28 4 13 -20 12 -30 -3 -60 -11 -21 -10 -36 5 -90
10 -35 18 -77 18 -93 0 -27 -1 -28 -22 -13 -26 19 -183 23 -193 5 -4 -6 28
-44 70 -85 42 -42 75 -78 72 -80 -3 -3 -22 7 -43 21 -45 31 -88 30 -92 -1 -2
-11 10 -45 27 -76 l29 -56 -34 14 c-59 25 -244 13 -244 -15 0 -27 170 -145
253 -176 l48 -18 -37 -13 c-45 -15 -79 -47 -71 -67 3 -8 24 -17 47 -21 l42 -6
-28 -48 c-15 -26 -53 -81 -84 -122 -69 -91 -100 -149 -100 -190 0 -33 -2 -35
-29 -18 -16 10 -17 16 -9 47 18 65 -8 273 -42 342 -34 65 -44 66 -84 12 -42
-56 -52 -89 -63 -196 l-8 -79 -115 77 c-96 64 -120 86 -143 126 l-27 49 20 40
c46 89 64 227 36 266 -14 18 -19 15 -97 -61 -44 -44 -94 -97 -109 -118 l-28
-38 -37 46 c-24 28 -45 45 -59 45 -33 0 -149 131 -127 144 5 3 46 -6 92 -20
46 -14 114 -28 152 -31 l67 -6 0 28 c0 21 -19 47 -77 107 -72 74 -76 80 -48
75 17 -4 50 -7 75 -9 40 -2 45 0 48 19 4 31 -29 102 -68 147 l-33 37 85 -7
c96 -7 128 2 128 41 0 27 -22 52 -59 67 -50 18 -186 47 -280 59 -79 9 -100 8
-135 -4 -22 -9 -70 -17 -106 -19 -36 -2 -81 -12 -100 -22 -37 -19 -117 -46
-136 -46 -6 0 -17 13 -24 30 -7 16 -21 32 -32 36 -10 3 -18 9 -16 12 10 21 71
138 74 141 1 2 17 -13 34 -32 37 -42 104 -77 148 -77 28 0 32 4 38 36 8 41 -2
200 -17 288 -6 32 -8 60 -6 62 2 3 40 -7 83 -22 96 -33 246 -41 252 -13 1 8
-22 47 -53 85 l-55 69 33 5 c107 18 -105 160 -313 210 -96 23 -97 23 -104 103
-3 40 -13 93 -22 119 -15 47 -53 88 -80 88 -46 0 -164 -172 -151 -220 3 -12
-25 10 -71 55 -74 72 -189 165 -204 165 -15 0 -8 -35 17 -88 14 -30 53 -82 86
-118 l62 -64 -125 0 c-141 0 -212 -11 -275 -41 -35 -17 -41 -24 -32 -35 17
-21 74 -34 182 -41 53 -3 97 -10 97 -15 0 -4 -7 -8 -15 -8 -8 0 -92 -32 -186
-72 l-171 -72 26 -23 c14 -12 45 -27 69 -34 23 -6 48 -13 55 -15 9 -3 8 -13
-8 -43 -11 -22 -20 -43 -20 -46 0 -9 137 -5 188 6 27 5 93 32 147 58 l98 48
-7 -161 c-4 -88 -9 -162 -11 -164 -2 -2 -20 1 -42 7 -95 27 -184 2 -275 -78
-26 -23 -62 -42 -92 -50 -179 -44 -116 -91 124 -92 74 0 144 -3 156 -6 19 -4
14 -18 -72 -181 -98 -187 -126 -268 -140 -402 l-7 -75 -21 64 c-23 70 -97 164
-137 174 -21 6 -22 4 -17 -94 4 -84 9 -105 28 -131 l23 -31 -24 7 c-13 4 -71
16 -128 27 -83 15 -106 16 -113 7 -22 -36 7 -123 47 -138 15 -6 58 -10 97 -10
69 0 71 0 54 -19 -10 -11 -50 -36 -89 -57 -40 -21 -95 -55 -124 -76 -29 -21
-59 -38 -67 -38 -8 0 -17 -4 -20 -9 -10 -15 45 -23 163 -22 101 1 112 0 101
-14 -7 -8 -29 -15 -50 -15 -35 0 -40 -4 -70 -54 -31 -51 -36 -54 -78 -58 -41
-3 -50 1 -106 46 -76 62 -226 160 -232 153 -3 -3 6 -34 21 -69 46 -109 48
-102 -31 -95 -38 3 -126 11 -196 17 -70 7 -140 9 -155 5 l-28 -7 23 -18 c24
-20 127 -54 197 -66 l40 -7 -45 -9 c-163 -31 -276 -72 -309 -112 -20 -24 -6
-44 31 -48 l33 -3 -40 -24 c-97 -58 -165 -104 -165 -112 0 -19 86 -31 170 -24
l85 7 -56 -51 c-32 -28 -62 -64 -67 -80 -11 -30 -10 -30 35 -37 86 -13 272 11
335 43 25 12 30 11 50 -9 l21 -21 -16 -101 c-9 -56 -20 -111 -23 -124 -4 -13
-2 -22 5 -22 26 0 130 61 178 104 l51 46 36 -15 c19 -8 52 -15 72 -15 l37 0
-6 92 c-5 82 -4 95 14 120 l21 29 48 -70 c27 -38 79 -100 115 -137 36 -38 65
-69 65 -70 0 -1 -11 1 -25 4 -14 2 -45 1 -70 -3 -50 -7 -73 -26 -178 -147 -64
-74 -63 -79 18 -88 34 -4 49 -10 47 -18 -5 -24 18 -90 34 -96 33 -13 91 27
197 135 l107 111 73 -45 c72 -45 543 -249 605 -262 27 -6 37 -15 48 -43 8 -21
21 -49 29 -64 8 -16 13 -28 11 -28 -2 0 -38 16 -81 36 -42 19 -78 34 -80 32
-10 -12 15 -123 33 -148 24 -32 19 -38 -12 -15 -11 8 -30 15 -43 15 -18 0 -23
-6 -23 -26 0 -25 -2 -26 -44 -20 -24 4 -47 3 -50 -2 -7 -11 29 -45 72 -66 17
-9 32 -23 32 -32 0 -33 -32 -23 -112 33 -46 32 -104 72 -130 88 -38 23 -48 36
-48 56 0 38 -11 89 -20 89 -4 0 -18 -20 -31 -45 -30 -56 -51 -58 -116 -11 -50
35 -151 89 -192 101 l-24 7 5 -106 c3 -58 3 -106 1 -106 -2 0 -70 44 -151 98
-183 123 -196 128 -253 109 -39 -14 -44 -19 -42 -43 3 -36 48 -91 106 -130 25
-18 66 -56 90 -87 l45 -54 -66 -7 c-36 -4 -80 -14 -97 -21 -32 -16 -218 -162
-223 -176 -6 -14 230 -10 310 5 40 8 104 26 142 40 71 27 106 33 106 17 0 -5
-7 -14 -16 -22 -8 -7 -24 -30 -36 -52 -23 -47 -18 -84 15 -92 20 -5 24 -16 34
-90 18 -133 53 -177 95 -124 35 45 148 220 148 229 0 14 7 12 37 -7 36 -24
159 -24 195 -1 l25 17 -5 -88 c-3 -54 -1 -91 6 -94 17 -11 57 29 82 82 l23 51
24 -73 c36 -117 121 -196 210 -197 30 0 32 3 38 44 7 44 7 44 71 65 36 12 82
21 104 21 38 0 40 2 40 30 0 25 12 38 79 90 l80 60 -5 -38 c-27 -190 -68 -238
-244 -278 -109 -25 -78 -39 83 -39 127 0 134 1 199 32 81 38 101 66 102 139 1
30 3 54 5 54 2 0 12 -11 23 -25 30 -38 84 -29 101 17 5 16 5 16 45 -46 18 -27
32 -59 32 -71 0 -21 -47 -96 -69 -110 -46 -28 46 -49 179 -40 122 7 192 24
244 60 20 14 39 25 41 25 12 0 3 -72 -12 -99 -10 -16 -15 -32 -12 -36 14 -13
175 -9 215 6 l41 16 -29 -42 c-16 -23 -32 -61 -35 -85 l-6 -43 29 7 c77 17
339 123 365 147 27 25 28 25 33 5 3 -13 -2 -32 -14 -48 -26 -35 -25 -38 5 -38
16 0 25 -6 25 -15 0 -21 19 -19 38 4 10 11 36 22 59 26 37 6 42 4 48 -17 12
-38 55 -88 92 -106 45 -21 52 -10 54 83 0 39 4 78 7 88 7 16 11 14 37 -13 63
-66 218 -135 329 -146 66 -7 66 -7 66 19 0 14 -9 47 -20 73 -11 26 -18 49 -15
52 3 3 54 -2 113 -11 151 -24 212 -22 212 7 0 15 -42 56 -57 56 -13 0 -35 49
-28 61 4 5 14 13 25 19 16 8 23 2 50 -43 48 -78 111 -157 125 -157 20 0 35 88
35 199 l0 99 31 6 c47 9 49 8 49 -22 0 -45 49 -130 111 -193 87 -89 124 -82
184 36 15 30 29 55 32 55 2 0 3 -42 2 -94 -3 -114 4 -126 70 -126 25 0 75 -9
110 -20 36 -12 71 -18 78 -16 7 3 13 21 13 41 0 40 15 75 31 75 6 0 52 -21
103 -46 50 -25 110 -48 132 -51 40 -5 41 -5 57 38 9 25 17 78 18 122 1 42 4
77 6 77 3 0 19 -10 36 -22 27 -19 48 -24 128 -26 l95 -4 37 45 c60 74 44 141
-48 199 l-30 20 50 -6 c28 -3 109 -15 180 -26 72 -11 156 -20 188 -20 l57 0 0
34 c0 25 -8 42 -32 65 -17 17 -39 32 -47 33 -9 0 13 4 49 8 36 4 81 10 100 15
l35 8 -22 -24 c-28 -30 -56 -97 -49 -115 16 -41 179 6 230 67 l23 27 12 -35
c17 -45 79 -89 146 -103 65 -14 95 -2 95 36 0 38 18 64 45 64 40 0 70 -16 94
-52 31 -44 100 -96 139 -104 52 -11 87 11 121 76 18 33 36 62 41 65 8 5 36
-21 75 -71 15 -18 16 -18 33 6 55 79 84 80 109 4 l19 -56 62 56 c77 69 92 71
92 14 0 -58 18 -118 37 -125 30 -12 43 25 43 125 l0 94 28 -6 c32 -8 80 -42
161 -114 l59 -52 29 70 30 71 -51 143 c-28 79 -60 153 -70 165 l-19 21 71 0
c57 0 76 -4 91 -19 25 -25 141 -63 195 -63 40 0 44 -2 50 -29 5 -27 9 -29 51
-29 50 0 77 10 113 44 21 19 24 19 33 4 44 -78 157 -177 225 -197 94 -27 153
93 141 286 -5 80 -4 81 17 74 17 -7 22 -19 27 -67 10 -109 94 -254 227 -396
85 -90 145 -138 174 -138 17 0 18 10 18 129 l0 129 68 -33 c37 -19 89 -41 116
-50 64 -21 199 -39 232 -31 22 6 25 11 19 34 -12 50 -100 186 -165 255 -51 54
-77 72 -120 87 -43 15 -49 19 -26 20 49 0 148 30 235 71 83 38 85 39 103 21
16 -15 17 -23 8 -46 -5 -15 -10 -64 -10 -109 1 -142 73 -300 190 -411 91 -87
93 -84 104 202 8 214 2 350 -19 405 -7 15 1 17 81 17 128 0 210 16 279 54 57
31 106 88 90 104 -3 4 -119 9 -256 11 -228 3 -249 4 -249 20 0 49 -22 240 -32
271 -5 19 -17 40 -25 46 -33 27 -148 -67 -210 -173 -18 -31 -29 -41 -37 -34
-59 49 -262 113 -278 88 -12 -18 -10 -44 6 -82 11 -26 12 -43 4 -72 -5 -20 -7
-58 -4 -84 6 -45 5 -47 -25 -59 -17 -7 -49 -28 -71 -47 -54 -45 -69 -42 -94
16 -28 64 -116 134 -199 160 -55 17 -57 19 -30 24 17 3 80 9 140 12 131 8 181
19 195 45 18 33 11 37 -72 44 -119 10 -154 22 -204 68 -48 44 -55 59 -24 51
11 -3 31 2 45 11 13 9 33 16 43 16 66 0 66 152 2 294 -17 36 -30 70 -30 76 0
6 11 27 24 46 l24 35 23 -123 c18 -100 28 -130 53 -164 17 -23 47 -68 68 -101
24 -40 48 -65 71 -76 37 -18 123 -22 146 -8 19 12 8 78 -23 140 -30 59 -123
152 -178 180 -25 12 -36 22 -27 25 8 2 70 18 139 36 127 33 186 56 210 84 11
14 10 16 -3 10 -9 -3 -69 16 -134 42 -77 32 -132 48 -158 48 -40 -1 -108 -28
-155 -61 l-25 -18 25 35 c117 169 356 480 367 480 3 0 3 -6 0 -14 -15 -39 63
-262 115 -329 37 -48 89 35 124 199 14 65 27 120 29 123 3 2 7 -5 10 -15 3
-10 22 -52 42 -93 50 -101 133 -184 238 -238 94 -49 198 -85 219 -77 25 9 39
60 32 114 -10 75 -81 273 -135 377 -27 50 -58 123 -70 162 -12 39 -24 77 -27
86 -4 8 -1 15 6 15 49 0 210 222 210 290 0 20 -4 21 -42 15 -24 -4 -98 -25
-164 -46 -67 -22 -124 -39 -127 -39 -3 0 -1 19 5 43 11 49 3 171 -17 242 -27
95 -127 178 -234 194 -44 6 -46 8 -43 36 8 68 -69 176 -135 191 -55 12 -78 25
-95 54 -9 16 -32 39 -50 50 l-33 21 40 -5 c22 -3 63 -8 92 -11 43 -6 52 -10
57 -30 16 -63 143 -99 331 -93 120 4 175 18 175 44 0 7 -20 30 -45 52 -72 63
-254 122 -380 122 -107 0 -113 3 -107 55 4 41 2 47 -45 97 -40 43 -53 66 -68
121 -10 38 -24 71 -32 74 -18 7 -50 -22 -58 -54 -5 -22 -9 -24 -40 -19 -31 6
-35 4 -35 -14 0 -39 41 -182 66 -232 l24 -48 -37 0 c-21 0 -49 -3 -62 -7 -22
-6 -23 -9 -18 -66 l5 -60 -78 -111 c-81 -115 -192 -306 -211 -364 -6 -18 -29
-63 -51 -100 -23 -36 -44 -78 -48 -92 -3 -14 -12 -25 -18 -25 -6 0 -47 35 -91
78 -84 81 -123 97 -136 57 -7 -21 9 -90 30 -131 l14 -26 -55 -10 c-49 -9 -54
-8 -48 6 13 32 25 83 21 87 -2 3 -16 -1 -31 -7 -20 -10 -55 -9 -156 1 -112 11
-130 15 -126 29 10 35 17 131 10 131 -4 0 -27 -12 -52 -26 l-45 -26 6 88 c4
49 10 133 13 187 l7 98 36 15 c108 45 90 102 -46 144 -48 15 -93 20 -170 20
l-105 0 30 30 c25 25 32 41 37 92 10 93 -20 238 -49 238 -27 -1 -96 -41 -131
-75 -45 -46 -85 -127 -85 -176 0 -20 -7 -42 -15 -49 -14 -11 -15 -6 -9 42 12
105 -28 208 -98 255 -32 21 -57 26 -107 24 l-24 -1 6 -142 c3 -79 10 -158 16
-176 9 -30 8 -33 -7 -27 -57 22 -115 17 -126 -11 -3 -8 2 -40 13 -70 10 -30
17 -54 15 -54 -2 0 -19 9 -39 21 l-35 21 -16 -38 c-16 -38 -16 -76 -1 -294 2
-33 0 -35 -53 -56 -30 -12 -71 -24 -90 -26 l-35 -3 -3 52 c-2 29 11 147 27
262 33 227 54 301 137 484 37 81 53 105 64 100 30 -12 198 -15 252 -4 68 14
104 40 168 121 28 34 50 62 50 63 0 1 -40 0 -90 -1 -82 -4 -90 -2 -90 15 0 10
-9 37 -20 61 l-19 42 27 -7 c38 -10 393 -10 475 0 38 5 67 13 67 20 0 6 -23
32 -51 59 -60 56 -131 85 -230 94 l-71 7 25 21 c41 34 60 84 65 169 4 65 2 77
-11 77 -20 0 -61 -18 -109 -47 -48 -30 -51 -29 -43 8 4 17 4 60 0 95 -5 50
-10 64 -23 64 -28 0 -138 -125 -173 -195 -17 -36 -32 -65 -33 -65 0 0 -1 24
-2 53 -1 87 -80 214 -169 273 -22 14 -28 15 -35 4 -33 -53 -15 -223 33 -314
35 -66 112 -156 133 -156 17 0 17 -8 0 -39 l-13 -24 -11 30 c-5 17 -25 46 -44
64 -37 38 -123 87 -133 77 -4 -4 -9 -34 -12 -68 l-6 -61 -31 7 c-57 13 -61 11
-64 -29 l-3 -37 -42 29 c-44 30 -101 61 -112 61 -4 0 -5 -66 -3 -147 4 -156
11 -186 62 -241 45 -50 135 -75 167 -46 10 9 25 14 33 11 12 -5 5 -24 -34 -99
-27 -51 -65 -133 -85 -183 -21 -49 -38 -91 -39 -92 0 -1 -2 35 -2 80 -2 120
-51 242 -123 311 -17 17 -31 35 -31 42 0 16 -216 213 -247 225 -58 22 -94 -28
-72 -99 14 -46 63 -112 85 -112 8 0 14 -4 14 -8 0 -9 -140 -32 -191 -32 -21 0
-30 8 -44 40 -20 43 -98 123 -140 142 -18 8 -36 32 -54 73 -26 57 -132 185
-153 185 -9 0 -6 -211 4 -274 5 -29 -74 -46 -214 -46 -110 0 -118 -1 -118 -19
0 -30 17 -68 40 -91 24 -24 25 -24 -31 -5 -34 12 -44 20 -45 38 -3 40 -82 211
-114 247 -18 19 -34 31 -36 25 -1 -5 -6 -50 -9 -98 -6 -82 -8 -87 -24 -73 -38
35 -135 69 -208 74 -43 3 -73 1 -73 -5 0 -19 51 -56 142 -104 l93 -48 -180 -3
c-99 -2 -204 -2 -234 -1 -62 2 -63 4 42 -71 77 -55 153 -86 209 -86 37 0 35
-10 -7 -38 -39 -27 -90 -90 -81 -100 12 -11 120 -20 179 -14 41 3 74 15 112
38 l55 32 22 -31 c26 -36 26 -50 -4 -224 -25 -148 -32 -157 -97 -124 -34 17
-224 71 -250 71 -13 0 -9 -27 11 -67 13 -26 76 -58 136 -68 l42 -7 -21 -29
c-29 -41 -60 -59 -116 -68 -41 -6 -48 -10 -46 -28 2 -17 -5 -23 -30 -28 -43
-10 -67 -33 -67 -66 0 -54 94 -109 235 -139 63 -14 94 -30 57 -30 -62 0 -230
-87 -302 -156 -35 -33 -35 -33 -75 -19 -22 8 -51 15 -65 16 -29 1 -114 89 -87
89 35 0 95 32 106 56 25 55 8 74 -65 74 -20 0 -39 9 -57 28 -14 15 -62 45
-106 67 -44 22 -80 43 -81 46 0 4 22 9 49 13 27 3 76 20 110 37 62 31 83 54
145 162 24 42 25 48 10 43 -11 -3 -32 -8 -49 -11 -16 -4 -38 -9 -48 -12 -16
-4 -17 -2 -8 15 32 60 -8 110 -76 97 -20 -3 -68 -22 -106 -42 l-70 -35 7 71
c5 61 53 311 60 318 2 2 36 -15 78 -36 92 -48 180 -70 203 -51 31 25 9 167
-35 222 -17 23 -117 79 -161 92 -12 3 -15 12 -12 30 5 24 9 26 59 26 66 0 68
10 15 67 l-39 41 19 84 c11 46 30 106 44 135 14 28 25 58 25 65 0 29 16 39 44
28 33 -12 176 -29 194 -22 24 9 8 90 -30 145 -25 35 -95 71 -173 88 -101 22
-135 43 -240 149 -55 55 -103 100 -107 100 -4 0 -10 -16 -14 -36z m146 -674
c0 -5 -2 -10 -4 -10 -3 0 -8 5 -11 10 -3 6 -1 10 4 10 6 0 11 -4 11 -10z m-42
-182 c-3 -7 -29 -84 -58 -171 l-53 -157 -34 39 c-18 22 -55 56 -83 76 -52 38
-55 53 -15 79 21 14 28 14 66 1 23 -8 52 -15 65 -15 22 0 24 4 24 54 0 39 -6
60 -21 80 l-20 26 66 0 c50 0 66 -3 63 -12z m2528 -76 c-8 -16 -22 -32 -31
-36 -14 -5 -15 -4 0 16 8 13 15 36 15 52 0 28 1 29 16 14 14 -14 14 -18 0 -46z
m-1316 -83 c19 -5 55 -9 80 -9 l45 0 -50 -45 -50 -44 -15 22 c-8 12 -32 39
-54 61 -33 32 -36 37 -15 31 13 -5 40 -12 59 -16z m454 -119 c50 -23 76 -21
76 5 0 12 14 15 77 15 l76 0 -20 -22 c-35 -39 -73 -102 -73 -120 0 -22 43 -24
83 -4 36 20 36 13 -9 -116 -85 -245 -184 -371 -315 -403 -24 -6 -28 -2 -47 43
-41 94 -53 162 -53 287 -1 168 16 295 42 313 10 7 26 27 34 43 l16 29 32 -24
c18 -14 55 -35 81 -46z m-258 -72 c-35 -169 -25 -434 20 -562 8 -22 13 -41 11
-42 -2 -2 -28 6 -58 17 -61 24 -131 28 -153 10 -17 -14 -12 -69 11 -114 12
-24 12 -28 -2 -33 -28 -11 -42 4 -47 51 -3 25 -20 75 -38 111 -38 73 -131 181
-164 190 -23 5 -23 8 -22 149 l1 143 75 -72 75 -71 5 45 c6 51 11 52 66 15 20
-14 41 -25 45 -25 22 0 31 48 27 132 l-5 88 80 0 80 0 -7 -32z m-4613 -165
c-7 -12 -15 -41 -19 -65 -4 -34 -15 -51 -46 -80 -23 -20 -47 -34 -54 -31 -14
5 -30 76 -37 161 l-4 53 30 -31 c16 -17 34 -29 40 -27 5 1 26 42 46 89 l36 87
11 -67 c8 -52 8 -72 -3 -89z m5219 -93 c9 -19 29 -48 46 -63 l30 -28 22 45
c12 25 27 73 33 106 6 33 14 60 17 60 3 0 36 -16 72 -35 l67 -36 -20 -57 c-37
-106 -69 -256 -76 -355 -5 -83 -8 -97 -22 -93 -56 16 -103 16 -301 1 -209 -15
-223 -15 -241 1 -18 16 -17 18 25 44 53 34 120 103 148 153 12 20 25 37 28 37
4 0 17 -12 31 -26 30 -33 80 -58 144 -73 28 -7 58 -14 69 -18 17 -5 18 0 14
55 -7 105 -87 202 -164 202 -19 0 -34 2 -34 5 0 13 62 264 73 295 11 33 12 27
18 -75 3 -65 12 -124 21 -145z m-3614 74 c13 -26 22 -47 20 -48 -3 -2 -41 -20
-72 -34 -4 -3 -6 9 -3 24 3 16 8 46 12 67 3 20 9 37 13 37 5 0 18 -21 30 -46z
m4436 -144 c-15 -28 -29 -48 -31 -46 -5 4 23 63 39 84 22 26 18 10 -8 -38z
m79 -8 c-3 -12 -9 -22 -14 -22 -12 0 -11 7 2 32 13 25 20 19 12 -10z m-3507
-28 c9 -25 34 -70 55 -100 37 -52 38 -54 16 -58 -12 -3 -57 -12 -100 -20 -119
-23 -133 -43 -67 -99 58 -50 192 -86 318 -87 39 0 54 -11 33 -25 -5 -3 -12
-19 -16 -35 -4 -17 -13 -30 -21 -30 -8 0 -56 -14 -105 -31 l-90 -32 32 -33
c34 -35 112 -77 165 -88 19 -4 34 -15 37 -25 3 -14 11 -17 33 -13 l29 5 -28
-23 c-26 -21 -27 -24 -13 -39 13 -12 37 -16 101 -16 82 0 85 1 120 35 31 30
37 32 50 20 7 -8 50 -88 94 -177 58 -117 76 -163 65 -163 -18 0 -65 22 -119
55 -45 28 -93 33 -101 10 -5 -13 -21 -14 -100 -9 -92 7 -94 7 -94 -15 0 -12 7
-35 15 -50 18 -35 106 -116 154 -141 l36 -19 -35 -1 c-35 0 -106 -30 -210 -89
-49 -27 -52 -32 -33 -37 18 -5 22 -11 17 -29 -7 -28 14 -35 112 -35 77 0 152
19 227 57 44 22 48 22 44 6 -3 -10 -13 -53 -22 -95 -19 -85 -17 -84 -93 -57
-13 5 -50 9 -83 9 l-59 0 6 -41 7 -40 -66 46 c-120 83 -336 175 -414 175 -29
0 -29 -17 -3 -103 39 -124 141 -240 289 -324 57 -33 56 -32 48 -39 -9 -9 -197
-54 -224 -54 l-22 0 19 33 c10 17 23 51 29 75 8 39 7 43 -7 37 -55 -23 -100
-25 -211 -10 -64 9 -158 19 -209 22 -105 7 -102 2 -56 95 21 40 22 51 12 68
-25 40 -74 53 -175 47 -81 -5 -93 -3 -93 11 0 13 -4 12 -22 -6 -13 -11 -53
-31 -89 -44 l-65 -24 -86 80 c-91 86 -118 126 -118 176 0 36 3 37 44 5 18 -13
49 -31 69 -40 37 -15 222 -65 245 -65 37 0 -4 111 -87 234 l-49 74 134 4 c80
2 138 8 145 15 17 17 -21 49 -86 69 -55 17 -56 19 -51 47 3 16 6 69 6 118 0
104 3 106 76 56 27 -18 70 -48 95 -65 26 -18 50 -32 54 -32 19 0 -7 101 -43
172 l-40 78 25 0 c14 0 39 6 56 14 18 8 62 17 100 21 37 4 67 11 67 16 0 5 22
-8 49 -30 60 -47 189 -102 254 -109 47 -5 47 -4 47 26 0 76 -151 196 -263 209
-29 3 -62 12 -74 20 -14 9 -23 11 -28 4 -3 -6 -28 11 -57 40 -60 60 -61 56 35
175 36 45 68 91 72 103 11 35 221 180 262 181 6 0 19 -21 29 -46z m5104 -14
c0 -16 62 -50 91 -50 22 0 31 -9 51 -49 l24 -49 -102 -4 c-116 -3 -140 -14
-108 -49 10 -11 32 -28 48 -36 28 -15 29 -16 11 -29 -15 -11 -16 -16 -6 -28 7
-9 21 -18 32 -21 12 -4 19 -16 19 -31 0 -22 4 -24 43 -24 23 0 69 7 102 14 33
8 62 13 64 11 5 -6 -119 -145 -130 -145 -5 0 -9 11 -9 25 0 16 -4 23 -13 19
-7 -2 -30 3 -51 11 -48 20 -259 32 -298 16 -20 -7 -28 -18 -28 -36 0 -30 46
-56 133 -75 31 -7 57 -16 57 -20 0 -4 -10 -15 -21 -26 -12 -10 -35 -37 -51
-59 -33 -45 -82 -65 -162 -65 -48 0 -48 0 -26 18 l22 18 -25 13 -25 13 28 77
c15 42 81 168 147 281 65 113 130 224 143 248 22 40 40 54 40 32z m-1752 -74
l-32 -47 -18 23 c-38 48 -39 55 -9 50 16 -2 41 3 57 11 16 8 30 14 32 12 2 -1
-12 -24 -30 -49z m226 -33 c59 -5 71 -3 96 16 26 19 42 21 164 21 l134 0 -13
-42 c-7 -24 -15 -79 -19 -123 -14 -167 -27 -228 -57 -262 -34 -39 -52 -101
-44 -147 4 -20 1 -47 -9 -71 -15 -34 -18 -36 -35 -24 -181 134 -179 133 -191
179 -6 25 -27 69 -47 99 -33 51 -34 54 -12 47 13 -3 65 -11 114 -17 148 -18
190 5 145 79 -38 61 -158 92 -361 92 l-99 0 0 30 c0 19 17 55 45 99 l46 68 38
-19 c21 -10 68 -21 105 -25z m-2012 -50 c10 -42 17 -78 15 -79 -1 -2 -16 6
-33 16 l-30 20 10 60 c5 33 12 60 15 60 4 0 14 -35 23 -77z m-3842 -28 c0 -22
-4 -25 -37 -25 l-37 0 34 25 c19 13 36 24 38 25 1 0 2 -11 2 -25z m30 -25 c0
-5 -2 -10 -4 -10 -3 0 -8 5 -11 10 -3 6 -1 10 4 10 6 0 11 -4 11 -10z m-80
-72 c0 -2 7 -24 14 -50 l15 -47 -79 2 c-63 2 -85 7 -107 24 l-28 21 55 25 c44
20 130 36 130 25z m7926 -251 c26 -34 67 -82 91 -108 l43 -45 -42 -19 c-23
-10 -63 -39 -88 -64 -45 -45 -47 -46 -73 -31 -25 14 -27 20 -27 78 0 92 -26
195 -64 251 l-33 48 40 46 39 47 34 -71 c19 -39 55 -98 80 -132z m-5004 141
c-9 -9 -14 -5 -22 16 -15 40 -13 43 12 18 17 -17 19 -25 10 -34z m-1221 -6
c-16 -30 -38 -44 -63 -40 -20 3 -18 6 22 30 54 33 53 32 41 10z m3478 -272
c18 -52 37 -103 43 -113 13 -24 5 -20 -82 48 -36 27 -125 86 -198 130 l-132
80 108 5 c125 6 150 17 184 83 l22 42 11 -90 c7 -49 26 -133 44 -185z m-5233
47 c174 -152 268 -219 347 -249 29 -11 65 -32 80 -46 l28 -27 -119 -5 c-107
-5 -125 -8 -177 -35 -58 -30 -105 -78 -91 -92 4 -5 59 -10 122 -11 124 -4 142
2 232 74 38 32 40 24 17 -71 -8 -33 -14 -104 -15 -157 l0 -97 -42 -3 c-38 -3
-43 -6 -46 -30 -5 -39 47 -93 114 -117 71 -27 219 -44 314 -36 102 9 168 41
215 105 20 28 38 50 40 50 1 0 -13 -41 -32 -92 -39 -105 -55 -217 -51 -359 l3
-94 57 2 c51 2 57 0 62 -22 16 -64 199 -178 340 -211 71 -16 87 -26 68 -38 -4
-2 -97 4 -207 15 -110 10 -211 18 -225 17 -24 -3 -25 0 -30 57 l-5 60 -40 -3
c-60 -4 -102 -21 -123 -47 l-19 -24 -17 81 c-9 45 -23 92 -32 106 -15 23 -16
23 -36 5 -41 -37 -61 -94 -67 -193 -5 -78 -8 -89 -14 -58 -4 20 -14 39 -22 42
-8 3 -15 12 -15 21 0 19 -68 95 -85 95 -7 0 -17 -12 -22 -26 l-9 -26 -27 36
c-39 50 -98 106 -112 106 -20 0 -26 -59 -14 -148 6 -46 9 -86 6 -88 -3 -3 -20
11 -39 32 -45 50 -97 81 -165 99 -75 20 -167 20 -183 0 -30 -36 98 -190 213
-255 32 -18 57 -34 55 -35 -16 -14 -592 134 -750 192 -73 27 -76 32 -54 92
l12 33 30 -25 c43 -36 123 -77 151 -77 13 0 31 9 41 20 14 17 24 19 59 14 24
-3 54 -3 67 0 54 13 76 69 34 85 -13 5 -78 36 -144 68 l-121 58 132 -3 c162
-5 228 10 271 61 l27 32 -59 7 c-80 11 -153 35 -189 63 -27 22 -28 25 -10 30
82 27 121 54 136 93 14 36 2 62 -28 62 -24 0 -25 1 -11 18 9 9 21 27 27 40 11
21 9 24 -31 42 -24 11 -53 20 -66 20 -12 0 -81 19 -152 42 -125 40 -129 42
-113 60 24 27 8 48 -55 74 -75 30 -75 37 0 32 37 -3 70 -3 73 0 9 9 -27 42
-46 42 -10 0 -21 5 -24 10 -4 6 13 10 44 10 62 0 71 13 71 104 0 85 -14 101
-99 110 -54 6 -62 10 -55 24 16 39 17 72 0 72 -19 0 -20 4 -4 33 16 30 11 98
-11 157 l-19 50 36 10 c37 10 52 2 52 -29 0 -20 41 -89 56 -95 20 -8 72 83 90
161 l17 71 37 -5 c25 -4 49 1 76 15 l39 20 36 -32 c20 -17 108 -93 195 -169z
m5624 26 c38 -47 174 -140 241 -164 47 -17 59 -25 53 -38 -3 -9 -9 -37 -11
-63 l-5 -48 -19 24 c-31 40 -159 84 -189 66 -12 -8 -11 -17 10 -57 14 -26 26
-51 28 -54 1 -4 -27 -8 -63 -11 -75 -5 -93 -16 -74 -46 15 -23 70 -52 102 -53
l22 0 -22 -16 c-16 -11 -23 -26 -23 -49 0 -32 2 -34 35 -34 l34 0 -19 -42
c-11 -24 -20 -50 -20 -60 0 -10 -24 -27 -66 -47 -36 -17 -67 -31 -69 -31 -1 0
-5 39 -8 88 -8 105 -30 192 -87 332 -23 58 -53 134 -66 169 l-24 64 47 -44
c57 -53 108 -78 126 -60 6 6 13 61 15 133 4 101 7 118 16 97 6 -14 22 -39 36
-56z m-5424 6 c14 -28 24 -53 22 -55 -6 -5 -108 86 -108 97 0 5 13 9 30 9 26
0 33 -7 56 -51z m4174 37 c0 -2 -16 -20 -35 -40 -35 -37 -61 -106 -51 -133 5
-12 19 -14 64 -11 l58 4 -48 -200 c-27 -109 -47 -200 -46 -201 10 -8 144 18
175 34 74 38 133 122 148 209 4 24 10 41 13 37 4 -3 16 -33 28 -65 30 -82 81
-164 132 -212 51 -46 80 -47 102 -3 22 45 26 244 6 341 -9 42 -15 79 -13 80 4
5 208 -127 269 -174 29 -22 70 -56 92 -76 25 -23 48 -36 66 -36 24 0 30 -6 48
-57 31 -86 50 -169 58 -254 l7 -76 -78 -76 -77 -76 -58 40 c-31 21 -65 39 -74
39 -21 0 -21 -49 3 -161 12 -60 15 -91 8 -107 -9 -21 -14 -18 -91 56 -93 89
-172 144 -256 178 -33 13 -63 24 -66 24 -13 0 6 -93 26 -124 20 -34 115 -127
164 -161 l28 -20 -51 0 c-45 0 -53 3 -57 21 -14 57 -95 100 -203 110 -69 7
-70 7 -56 28 8 11 15 24 15 28 0 14 -67 8 -80 -7 -7 -8 -21 -15 -31 -15 -10 0
-26 -11 -35 -25 -8 -13 -37 -34 -62 -46 -26 -12 -96 -45 -157 -75 -139 -67
-222 -84 -303 -63 -51 13 -57 17 -54 38 4 42 62 146 108 197 l44 49 -5 -75
c-8 -96 5 -121 54 -100 17 7 40 23 50 36 13 16 29 24 51 24 17 0 40 4 50 10
20 11 40 59 40 97 l0 23 51 -26 c28 -14 53 -23 56 -20 3 3 2 21 -1 40 -8 40
-61 86 -100 86 -14 0 -26 5 -26 10 0 6 27 10 60 10 33 0 60 3 60 8 -1 23 -45
52 -79 52 -12 0 -21 4 -21 9 0 5 -13 11 -28 14 -20 4 -42 24 -71 62 -37 48
-119 115 -142 115 -4 0 -10 -7 -13 -16 -7 -18 13 -59 51 -105 21 -24 23 -31
10 -26 -19 7 -307 -9 -316 -18 -2 -3 0 -18 5 -33 10 -28 64 -53 149 -68 l40
-6 -50 -15 c-73 -21 -84 -35 -52 -67 21 -21 36 -26 77 -26 27 0 50 -3 50 -6 0
-3 -18 -27 -41 -52 -55 -62 -115 -166 -154 -263 l-31 -80 -44 88 c-54 110
-176 238 -255 269 l-50 19 90 6 c135 9 191 47 168 116 -11 33 -49 54 -110 61
-53 6 -75 27 -38 36 55 14 11 64 -81 91 -101 29 -58 38 155 31 114 -4 202 -3
210 2 17 12 6 64 -19 87 -24 22 -78 34 -162 36 -38 1 -68 4 -68 6 0 3 18 25
40 50 22 25 40 49 40 53 0 4 15 7 34 8 29 1 36 -3 47 -30 18 -43 79 -118 128
-157 40 -32 43 -33 56 -15 23 32 46 130 52 224 l6 89 28 -14 c15 -8 40 -15 55
-15 l26 0 -7 86 c-4 48 -15 115 -25 150 -9 35 -17 64 -16 64 0 0 33 -7 71 -15
39 -8 89 -15 113 -15 l42 0 0 40 0 40 55 0 c30 0 55 -2 55 -4z m-2580 -16 c0
-5 -5 -10 -11 -10 -5 0 -7 5 -4 10 3 6 8 10 11 10 2 0 4 -4 4 -10z m5833 -97
c9 -114 67 -262 129 -329 l19 -21 -73 -48 c-111 -72 -246 -211 -346 -355 l-86
-125 -18 95 c-9 52 -20 110 -23 128 l-6 32 43 0 c44 0 115 14 125 24 19 19
-126 166 -163 166 -17 0 -18 12 -2 28 8 8 45 12 100 12 102 0 168 20 168 52 0
49 -162 144 -264 155 -43 4 -54 9 -46 18 6 7 25 15 43 18 17 3 40 8 50 12 13
5 17 2 17 -14 0 -24 33 -48 78 -57 29 -6 37 -2 75 38 23 24 62 82 86 128 43
84 68 120 81 120 4 0 10 -35 13 -77z m-3953 2 c0 -32 -75 -182 -132 -261 -54
-76 -155 -171 -188 -175 -24 -4 -25 -2 -25 58 0 59 -1 63 -23 63 -13 0 -35 -6
-50 -14 -27 -14 -28 -13 -44 26 l-17 39 54 -6 55 -7 0 48 c0 27 -5 66 -11 87
-7 27 -7 46 2 71 l12 33 74 -5 c76 -5 126 6 233 48 60 24 60 24 60 -5z m3125
-99 c44 -1 92 2 106 6 24 7 23 5 -12 -31 -20 -22 -64 -80 -97 -129 l-60 -90
-6 37 c-7 46 -75 143 -123 176 -32 21 -34 25 -17 30 10 3 30 12 44 19 21 11
30 10 55 -2 19 -10 60 -16 110 -16z m-5225 -93 c0 -27 3 -59 7 -72 6 -23 5
-24 -46 -19 -28 3 -54 7 -57 10 -8 9 68 128 82 128 10 0 14 -14 14 -47z m5450
-132 c0 -5 3 -23 6 -40 l7 -31 -56 6 c-49 6 -56 4 -66 -14 -6 -11 -11 -39 -11
-61 0 -23 -4 -41 -9 -41 -6 0 -24 -30 -42 -67 -24 -47 -34 -84 -37 -130 -5
-69 -4 -69 68 -63 62 5 153 81 166 138 12 54 14 59 24 42 8 -15 62 -275 74
-357 7 -49 2 -52 -33 -19 -38 34 -215 142 -267 162 -56 21 -70 12 -56 -39 l10
-36 -51 -5 c-29 -3 -98 -8 -153 -11 l-101 -6 5 28 c2 15 22 58 44 94 66 113
71 240 13 382 -20 50 -21 58 -7 52 33 -13 134 -26 154 -19 18 5 20 3 13 -12
-35 -85 -34 -89 23 -87 48 1 140 42 188 84 59 51 94 70 94 50z m854 -58 c-30
-22 -39 -15 -13 13 15 16 25 21 28 13 2 -7 -4 -18 -15 -26z m-7101 -156 c23
-19 22 -23 -14 -36 -45 -15 -45 -15 -41 29 4 42 9 42 55 7z m5030 -197 c-23
-69 -28 -148 -10 -166 11 -12 79 19 137 62 l60 44 0 -89 c0 -80 2 -90 19 -96
28 -8 95 28 126 69 14 18 32 54 41 80 9 25 17 46 18 46 2 0 27 -24 57 -52 172
-167 240 -228 279 -254 l44 -29 -102 -10 c-56 -6 -107 -16 -113 -22 -17 -17
11 -56 66 -95 32 -23 42 -35 35 -43 -8 -9 19 -26 102 -62 62 -28 131 -56 153
-63 64 -20 59 -25 -24 -25 -64 0 -83 -4 -100 -19 -22 -20 -28 -60 -11 -71 20
-13 9 -24 -45 -44 -63 -24 -69 -25 -60 -11 3 5 -4 19 -16 31 -19 19 -30 21
-104 17 l-82 -4 20 33 c34 59 6 163 -63 232 -45 45 -65 41 -84 -16 -8 -27 -20
-79 -26 -118 -15 -93 -28 -119 -64 -123 -37 -5 -46 10 -46 76 l0 53 -42 -6
c-59 -8 -70 2 -57 48 10 38 -1 125 -20 155 -15 25 -198 -97 -228 -152 -9 -17
-14 -17 -69 -5 -32 7 -60 13 -62 14 -1 2 6 36 18 76 24 88 26 171 5 189 -18
15 -68 0 -100 -30 l-21 -20 -42 51 c-23 29 -42 57 -42 63 1 35 156 186 245
238 57 34 229 125 232 124 0 -1 -10 -35 -24 -76z m-4527 -115 c58 -37 124
-102 124 -121 0 -7 -7 -14 -15 -17 -13 -6 -131 9 -145 18 -3 2 -7 25 -9 50 -1
25 -6 58 -11 71 -17 44 -15 44 56 -1z m-2246 -34 c0 -17 -18 -21 -24 -6 -3 9
0 15 9 15 8 0 15 -4 15 -9z m155 -130 c-3 -6 -11 -11 -17 -11 -6 0 -6 6 2 15
14 17 26 13 15 -4z m-317 -8 l73 -6 -3 -31 c-5 -86 -1 -96 50 -118 33 -15 72
-22 131 -24 83 -3 85 -4 97 -32 7 -16 17 -33 24 -37 17 -10 49 24 65 71 l14
39 1 -66 c0 -60 -13 -123 -29 -141 -4 -4 -33 9 -66 29 -37 22 -71 36 -88 34
-57 -3 -165 66 -274 175 -98 98 -125 135 -85 119 9 -4 50 -9 90 -12z m5809
-75 c13 -22 43 -49 71 -63 93 -51 133 -77 127 -84 -6 -5 -276 -32 -282 -27 -1
0 7 37 18 81 10 44 19 105 20 135 1 52 1 53 11 25 6 -16 22 -47 35 -67z
m-3399 -13 c27 -14 67 -29 88 -33 l39 -9 -29 -12 c-33 -13 -144 -31 -199 -31
l-39 0 30 25 c16 13 35 38 42 55 7 16 14 30 15 30 2 0 26 -11 53 -25z m3201
-106 c1 -51 -1 -57 -21 -63 -33 -9 -38 -8 -38 9 0 8 -17 32 -38 54 l-38 40 61
46 60 46 7 -38 c4 -21 7 -63 7 -94z m-943 -91 l52 -31 -29 -25 c-54 -45 -78
-100 -85 -194 l-7 -85 -35 -11 c-20 -6 -36 -10 -37 -9 -1 1 -18 23 -39 49
l-38 48 16 112 c9 62 16 134 16 159 l0 46 68 -14 c37 -8 90 -28 118 -45z
m-1278 16 c48 -33 117 -52 252 -68 136 -16 120 -20 -100 -20 -160 -1 -165 -2
-168 -22 -2 -12 4 -28 12 -37 9 -9 16 -17 16 -19 0 -2 -55 -3 -122 -3 -109 0
-123 2 -126 18 -2 9 1 17 6 17 5 0 25 16 45 35 31 30 37 43 37 79 0 23 3 46 7
50 14 14 105 -6 141 -30z m602 -59 c-7 -9 -28 -15 -49 -14 l-36 1 40 13 c54
17 60 18 45 0z m854 -17 c27 2 37 -2 33 -11 -2 -6 -12 -56 -22 -111 -10 -55
-21 -92 -25 -85 -4 8 -12 48 -19 89 -7 44 -20 87 -32 104 l-21 28 23 -8 c13
-4 41 -6 63 -6z m754 -68 c4 0 18 7 30 16 20 14 31 14 114 0 50 -9 139 -16
196 -16 104 0 105 0 87 -20 -15 -17 -31 -20 -97 -20 -64 0 -80 -3 -85 -17 -4
-11 4 -25 27 -44 24 -20 29 -30 19 -33 -8 -2 -31 -10 -51 -16 -47 -14 -114
-63 -122 -88 -6 -19 -9 -19 -53 -6 -54 17 -123 18 -123 4 0 -40 72 -134 126
-166 23 -14 48 -31 54 -39 10 -12 9 -15 -9 -15 -28 0 -28 -44 -1 -85 11 -16
20 -33 20 -37 0 -13 -96 48 -175 111 -93 74 -110 84 -135 76 -31 -10 -28 -98
5 -160 14 -26 24 -48 23 -50 -2 -1 -21 -12 -43 -25 -22 -12 -68 -40 -102 -62
l-61 -39 -50 25 c-28 14 -78 33 -111 42 l-61 17 0 66 c0 59 1 64 14 45 22 -31
134 -96 169 -98 29 -1 32 2 40 40 8 37 -4 111 -27 165 -8 19 33 29 119 29 28
0 69 9 93 20 41 19 52 33 32 45 -14 9 -210 42 -296 50 -43 5 -80 14 -94 25
l-24 18 35 15 c18 9 46 24 60 33 26 17 28 16 54 -4 65 -51 107 -19 141 104 9
35 20 64 24 64 4 0 21 -20 39 -46 36 -49 104 -100 120 -89 6 3 11 35 11 70 0
55 4 68 25 89 14 14 26 33 26 43 1 10 4 6 6 -9 2 -16 8 -28 11 -28z m-1420
-30 c19 -27 56 -70 83 -95 27 -25 49 -47 49 -49 0 -2 -17 1 -37 7 -21 6 -60
31 -88 56 -27 26 -61 54 -75 62 l-25 17 24 26 c14 14 27 26 30 26 3 0 21 -23
39 -50z m892 -49 c-8 -5 -32 -11 -52 -14 -29 -4 -38 -2 -38 9 0 10 13 14 53
14 33 0 47 -4 37 -9z m-2915 -51 c3 -5 -1 -10 -9 -10 -9 0 -16 5 -16 10 0 6 4
10 9 10 6 0 13 -4 16 -10z m5785 -46 c0 -8 -19 -43 -56 -102 l-34 -52 -55 36
c-30 21 -53 40 -50 43 7 6 175 79 188 80 4 1 7 -2 7 -5z m-2050 -134 c20 0 29
-6 33 -22 4 -12 5 -24 3 -26 -2 -2 -37 14 -77 35 l-74 37 40 6 c33 4 41 2 43
-12 2 -12 13 -18 32 -18z m-2085 -2 l70 -22 -81 -8 c-44 -4 -100 -4 -124 0
l-44 7 44 27 c25 15 50 25 55 23 6 -2 42 -14 80 -27z m3859 -48 c4 -4 -1 -11
-13 -15 -12 -3 -21 -11 -21 -16 0 -24 -15 -5 -17 22 -2 27 0 29 20 23 12 -3
26 -10 31 -14z m-3781 -122 c-21 -37 -62 -47 -124 -31 -33 9 -32 9 42 35 102
35 105 34 82 -4z m5177 -63 c0 -9 -9 -15 -25 -15 -31 0 -33 17 -2 23 12 2 23
5 25 6 1 0 2 -6 2 -14z m-167 -34 c15 -5 8 -12 -36 -34 -73 -35 -79 -34 -37 8
37 36 44 38 73 26z m-3327 -127 c-1 -1 -18 1 -38 4 -34 4 -38 7 -38 34 l0 30
38 -33 c21 -19 38 -34 38 -35z"/>
</g>
</svg>
